# xmcd
#
# Track frame offsets: 
#        150
#        1892
#        5775
#        7165
#        19992
#        29635
#        42387
#        55535
#        64375
#        66287
#        76130
#        89490
#        95890
#        107422
#        119202
#        127900
#        140745
#        153290
#        154142
#        162395
#        166540
#        177922
#        180130
#        192730
#        193467
#        204355
#        215690
#        227890
#        229050
#        240322
#        253282
#        258672
#        276370
#        296692
#        301187
#        314160
#        323465
#
# Disc length: 4404 seconds
#
# Revision: 4
# Processed by: cddbd v1.5.2PL0 Copyright (c) Steve Scherf et al.
# Submitted via: ExactAudioCopyFreeDBPlugin 1.0
#
DISCID=22113225
DTITLE=Kentucky Colonels - Livin' in the Past
DYEAR=1965
DGENRE=Bluegrass
TTITLE0=Introduction: Jerry Garcia
TTITLE1=Fire On The Mountain
TTITLE2=Introduction
TTITLE3=If You're Ever Gonna Love Me
TTITLE4=Band Introduction
TTITLE5=Julius Finkbine's Rag
TTITLE6=Dark Hollow
TTITLE7=Memphis Special
TTITLE8=Introduction
TTITLE9=He Said If I Be Lifted Up
TTITLE10=Get Down On Your Knees And Pray (bonus)
TTITLE11=Introduction
TTITLE12=Lee Highway Blues (bonus)
TTITLE13=A Woman Named Ruth
TTITLE14=Shuckin' The Corn
TTITLE15=Ocean Of Diamonds (bonus)
TTITLE16=Angel Of Death
TTITLE17=Introduction
TTITLE18=Barefoot Nellie
TTITLE19=Train 45
TTITLE20=Hard Hearted
TTITLE21=Introduction
TTITLE22=Chug-A-Lug
TTITLE23=Introduction
TTITLE24=Alabama Jubilee (bonus)
TTITLE25=Sunny Side Of The Mountain (bonus)
TTITLE26=Journey's End (A Life Of Sorrow)
TTITLE27=Introduction
TTITLE28=Sheik Of Araby
TTITLE29=Good Woman's Love
TTITLE30=Mother's Milk Routine
TTITLE31=Listen To The Mockingbird
TTITLE32=Old Joe Clark
TTITLE33=Introduction
TTITLE34=I Am A Pilgrim (bonus)
TTITLE35=Jordan
TTITLE36=Shady Grove
EXTD=YEAR: 1965 ID3G: 89
EXTT0=
EXTT1=
EXTT2=
EXTT3=
EXTT4=
EXTT5=
EXTT6=
EXTT7=
EXTT8=
EXTT9=
EXTT10=
EXTT11=
EXTT12=
EXTT13=
EXTT14=
EXTT15=
EXTT16=
EXTT17=
EXTT18=
EXTT19=
EXTT20=
EXTT21=
EXTT22=
EXTT23=
EXTT24=
EXTT25=
EXTT26=
EXTT27=
EXTT28=
EXTT29=
EXTT30=
EXTT31=
EXTT32=
EXTT33=
EXTT34=
EXTT35=
EXTT36=
PLAYORDER=
